<mxfile host="app.diagrams.net" modified="2023-09-27T08:56:51.957Z" agent="Mozilla/5.0 (Windows NT 10.0; Win64; x64) AppleWebKit/537.36 (KHTML, like Gecko) Chrome/117.0.0.0 Safari/537.36" etag="hELjBwEGYmoyK7K8HfBu" version="21.7.5" type="github">
  <diagram name="Seite-1" id="A-PmqckMtTU9lQVwqnEL">
    <mxGraphModel dx="1687" dy="2101" grid="1" gridSize="10" guides="1" tooltips="1" connect="1" arrows="1" fold="1" page="1" pageScale="1" pageWidth="827" pageHeight="1169" math="0" shadow="0">
      <root>
        <mxCell id="0" />
        <mxCell id="1" parent="0" />
        <mxCell id="PUfzVRV3rjOm0Vk-YSZq-25" value="&lt;b&gt;&lt;font style=&quot;font-size: 14px;&quot;&gt;STM32WB55&lt;/font&gt;&lt;br&gt;&lt;br&gt;&lt;br&gt;&lt;br&gt;&lt;br&gt;&lt;br&gt;&lt;br&gt;&lt;br&gt;&lt;br&gt;&lt;br&gt;&lt;br&gt;&lt;br&gt;&lt;br&gt;&lt;br&gt;&lt;br&gt;&lt;br&gt;&lt;br&gt;&lt;br&gt;&lt;br&gt;&lt;br&gt;&lt;br&gt;&lt;br&gt;&lt;br&gt;&lt;br&gt;&lt;br&gt;&lt;br&gt;&lt;br&gt;&lt;br&gt;&lt;br&gt;&lt;br&gt;&lt;br&gt;&lt;br&gt;&lt;br&gt;&lt;br&gt;&lt;/b&gt;" style="rounded=0;whiteSpace=wrap;html=1;align=center;fillColor=#FFCCCC;" vertex="1" parent="1">
          <mxGeometry x="20" y="-20" width="600" height="520" as="geometry" />
        </mxCell>
        <mxCell id="PUfzVRV3rjOm0Vk-YSZq-24" value="&lt;b&gt;M0 Core&lt;/b&gt;" style="rounded=0;whiteSpace=wrap;html=1;align=right;fillColor=#FFF2F2;" vertex="1" parent="1">
          <mxGeometry x="30" y="400" width="580" height="80" as="geometry" />
        </mxCell>
        <mxCell id="PUfzVRV3rjOm0Vk-YSZq-22" value="&lt;b&gt;M4 Core&lt;/b&gt;" style="rounded=0;whiteSpace=wrap;html=1;align=right;fillColor=#FFF2F2;" vertex="1" parent="1">
          <mxGeometry x="30" y="30" width="580" height="350" as="geometry" />
        </mxCell>
        <mxCell id="PUfzVRV3rjOm0Vk-YSZq-8" value="CUSTOM_STM_HUM_C_READ_EVT" style="text;whiteSpace=wrap;" vertex="1" parent="1">
          <mxGeometry x="20" y="-50" width="220" height="30" as="geometry" />
        </mxCell>
        <mxCell id="PUfzVRV3rjOm0Vk-YSZq-21" value="BLE Stack (IPCC, transport layer)" style="rounded=1;whiteSpace=wrap;html=1;fillColor=#5EEC9C;" vertex="1" parent="1">
          <mxGeometry x="40" y="420" width="510" height="30" as="geometry" />
        </mxCell>
        <mxCell id="PUfzVRV3rjOm0Vk-YSZq-26" value="" style="group" vertex="1" connectable="0" parent="1">
          <mxGeometry x="40" y="170" width="270" height="70" as="geometry" />
        </mxCell>
        <mxCell id="PUfzVRV3rjOm0Vk-YSZq-12" value="custom_stm.c&lt;br&gt;&lt;br&gt;&lt;br&gt;&lt;br&gt;" style="rounded=1;whiteSpace=wrap;html=1;fillColor=#5EEC9C;" vertex="1" parent="PUfzVRV3rjOm0Vk-YSZq-26">
          <mxGeometry width="270" height="70" as="geometry" />
        </mxCell>
        <mxCell id="PUfzVRV3rjOm0Vk-YSZq-14" value="Custom_STM&lt;br&gt;_Event_Handler" style="rounded=1;whiteSpace=wrap;html=1;fillColor=#BC9BEE;" vertex="1" parent="PUfzVRV3rjOm0Vk-YSZq-26">
          <mxGeometry x="20" y="30" width="110" height="30" as="geometry" />
        </mxCell>
        <mxCell id="PUfzVRV3rjOm0Vk-YSZq-15" value="Custom_STM_App&lt;br&gt;_Update_Char" style="rounded=1;whiteSpace=wrap;html=1;fillColor=#BC9BEE;" vertex="1" parent="PUfzVRV3rjOm0Vk-YSZq-26">
          <mxGeometry x="140" y="30" width="110" height="30" as="geometry" />
        </mxCell>
        <mxCell id="PUfzVRV3rjOm0Vk-YSZq-27" value="" style="group" vertex="1" connectable="0" parent="1">
          <mxGeometry x="40" y="280" width="130" height="70" as="geometry" />
        </mxCell>
        <mxCell id="PUfzVRV3rjOm0Vk-YSZq-9" value="svc_ctl.c&lt;br&gt;&lt;br&gt;&lt;br&gt;&lt;br&gt;" style="rounded=1;whiteSpace=wrap;html=1;fillColor=#5EEC9C;" vertex="1" parent="PUfzVRV3rjOm0Vk-YSZq-27">
          <mxGeometry width="130" height="70" as="geometry" />
        </mxCell>
        <mxCell id="PUfzVRV3rjOm0Vk-YSZq-11" value="SVCCTL&lt;br&gt;_UserEvtRx" style="rounded=1;whiteSpace=wrap;html=1;fillColor=#BC9BEE;" vertex="1" parent="PUfzVRV3rjOm0Vk-YSZq-27">
          <mxGeometry x="25" y="30" width="80" height="30" as="geometry" />
        </mxCell>
        <mxCell id="PUfzVRV3rjOm0Vk-YSZq-28" value="" style="group" vertex="1" connectable="0" parent="1">
          <mxGeometry x="200" y="280" width="410" height="70" as="geometry" />
        </mxCell>
        <mxCell id="PUfzVRV3rjOm0Vk-YSZq-16" value="humidity_meas.c&lt;br&gt;&lt;br&gt;&lt;br&gt;&lt;br&gt;" style="rounded=1;whiteSpace=wrap;html=1;fillColor=#5EEC9C;" vertex="1" parent="PUfzVRV3rjOm0Vk-YSZq-28">
          <mxGeometry width="390" height="70" as="geometry" />
        </mxCell>
        <mxCell id="PUfzVRV3rjOm0Vk-YSZq-52" value="" style="edgeStyle=orthogonalEdgeStyle;rounded=0;orthogonalLoop=1;jettySize=auto;html=1;" edge="1" parent="PUfzVRV3rjOm0Vk-YSZq-28" source="PUfzVRV3rjOm0Vk-YSZq-17" target="PUfzVRV3rjOm0Vk-YSZq-45">
          <mxGeometry relative="1" as="geometry" />
        </mxCell>
        <mxCell id="PUfzVRV3rjOm0Vk-YSZq-17" value="getHumidity" style="rounded=1;whiteSpace=wrap;html=1;fillColor=#BC9BEE;" vertex="1" parent="PUfzVRV3rjOm0Vk-YSZq-28">
          <mxGeometry x="16.4" y="30" width="73.6" height="30" as="geometry" />
        </mxCell>
        <mxCell id="PUfzVRV3rjOm0Vk-YSZq-45" value="filterHumidity" style="rounded=1;whiteSpace=wrap;html=1;fillColor=#BC9BEE;" vertex="1" parent="PUfzVRV3rjOm0Vk-YSZq-28">
          <mxGeometry x="120" y="30" width="80" height="30" as="geometry" />
        </mxCell>
        <mxCell id="PUfzVRV3rjOm0Vk-YSZq-19" value="HAL_ADC_&lt;br&gt;ConvCpltCallback" style="rounded=1;whiteSpace=wrap;html=1;fillColor=#BC9BEE;" vertex="1" parent="PUfzVRV3rjOm0Vk-YSZq-28">
          <mxGeometry x="260" y="30" width="103.6" height="30" as="geometry" />
        </mxCell>
        <mxCell id="PUfzVRV3rjOm0Vk-YSZq-49" value="1s" style="verticalLabelPosition=bottom;verticalAlign=top;html=1;shape=mxgraph.basic.flash" vertex="1" parent="PUfzVRV3rjOm0Vk-YSZq-28">
          <mxGeometry x="370" y="10" width="10" height="20" as="geometry" />
        </mxCell>
        <mxCell id="PUfzVRV3rjOm0Vk-YSZq-29" value="" style="group" vertex="1" connectable="0" parent="1">
          <mxGeometry x="40" y="60" width="140" height="70" as="geometry" />
        </mxCell>
        <mxCell id="PUfzVRV3rjOm0Vk-YSZq-4" value="custom_app.c&lt;br&gt;&lt;br&gt;&lt;br&gt;&lt;br&gt;" style="rounded=1;whiteSpace=wrap;html=1;fillColor=#5EEC9C;" vertex="1" parent="PUfzVRV3rjOm0Vk-YSZq-29">
          <mxGeometry width="140" height="70" as="geometry" />
        </mxCell>
        <mxCell id="PUfzVRV3rjOm0Vk-YSZq-6" value="Custom_STM&lt;br&gt;_App_Notification" style="rounded=1;whiteSpace=wrap;html=1;fillColor=#BC9BEE;" vertex="1" parent="PUfzVRV3rjOm0Vk-YSZq-29">
          <mxGeometry x="17.5" y="30" width="105" height="30" as="geometry" />
        </mxCell>
        <mxCell id="PUfzVRV3rjOm0Vk-YSZq-30" value="" style="edgeStyle=elbowEdgeStyle;elbow=horizontal;endArrow=classic;html=1;curved=0;rounded=0;endSize=8;startSize=8;exitX=0.25;exitY=0;exitDx=0;exitDy=0;entryX=0.5;entryY=1;entryDx=0;entryDy=0;" edge="1" parent="1" source="PUfzVRV3rjOm0Vk-YSZq-21" target="PUfzVRV3rjOm0Vk-YSZq-11">
          <mxGeometry width="50" height="50" relative="1" as="geometry">
            <mxPoint x="390" y="200" as="sourcePoint" />
            <mxPoint x="440" y="150" as="targetPoint" />
            <Array as="points">
              <mxPoint x="105" y="390" />
            </Array>
          </mxGeometry>
        </mxCell>
        <mxCell id="PUfzVRV3rjOm0Vk-YSZq-31" value="GATT Event" style="edgeLabel;html=1;align=left;verticalAlign=middle;resizable=0;points=[];labelBackgroundColor=none;" vertex="1" connectable="0" parent="PUfzVRV3rjOm0Vk-YSZq-30">
          <mxGeometry x="0.6485" relative="1" as="geometry">
            <mxPoint y="25" as="offset" />
          </mxGeometry>
        </mxCell>
        <mxCell id="PUfzVRV3rjOm0Vk-YSZq-32" value="" style="edgeStyle=elbowEdgeStyle;elbow=horizontal;endArrow=classic;html=1;curved=0;rounded=0;endSize=8;startSize=8;exitX=0.138;exitY=0.033;exitDx=0;exitDy=0;exitPerimeter=0;" edge="1" parent="1" source="PUfzVRV3rjOm0Vk-YSZq-11" target="PUfzVRV3rjOm0Vk-YSZq-14">
          <mxGeometry width="50" height="50" relative="1" as="geometry">
            <mxPoint x="390" y="200" as="sourcePoint" />
            <mxPoint x="440" y="150" as="targetPoint" />
          </mxGeometry>
        </mxCell>
        <mxCell id="PUfzVRV3rjOm0Vk-YSZq-33" value="" style="edgeStyle=elbowEdgeStyle;elbow=horizontal;endArrow=classic;html=1;curved=0;rounded=0;endSize=8;startSize=8;exitX=0.5;exitY=0;exitDx=0;exitDy=0;entryX=0.5;entryY=1;entryDx=0;entryDy=0;" edge="1" parent="1" source="PUfzVRV3rjOm0Vk-YSZq-14" target="PUfzVRV3rjOm0Vk-YSZq-6">
          <mxGeometry width="50" height="50" relative="1" as="geometry">
            <mxPoint x="390" y="200" as="sourcePoint" />
            <mxPoint x="110" y="130" as="targetPoint" />
            <Array as="points">
              <mxPoint x="110" y="160" />
            </Array>
          </mxGeometry>
        </mxCell>
        <mxCell id="PUfzVRV3rjOm0Vk-YSZq-34" value="" style="edgeStyle=elbowEdgeStyle;elbow=horizontal;endArrow=classic;html=1;curved=0;rounded=0;endSize=8;startSize=8;exitX=1;exitY=0.5;exitDx=0;exitDy=0;entryX=0.5;entryY=0;entryDx=0;entryDy=0;" edge="1" parent="1" source="PUfzVRV3rjOm0Vk-YSZq-6" target="PUfzVRV3rjOm0Vk-YSZq-15">
          <mxGeometry width="50" height="50" relative="1" as="geometry">
            <mxPoint x="390" y="200" as="sourcePoint" />
            <mxPoint x="440" y="150" as="targetPoint" />
            <Array as="points">
              <mxPoint x="235" y="150" />
            </Array>
          </mxGeometry>
        </mxCell>
        <mxCell id="PUfzVRV3rjOm0Vk-YSZq-48" value="" style="edgeStyle=elbowEdgeStyle;elbow=vertical;endArrow=classic;html=1;curved=0;rounded=0;endSize=8;startSize=8;exitX=1;exitY=0.069;exitDx=0;exitDy=0;exitPerimeter=0;" edge="1" parent="1" source="PUfzVRV3rjOm0Vk-YSZq-19">
          <mxGeometry width="50" height="50" relative="1" as="geometry">
            <mxPoint x="530" y="179.0322580645161" as="sourcePoint" />
            <mxPoint x="540" y="310" as="targetPoint" />
            <Array as="points">
              <mxPoint x="540" y="290" />
            </Array>
          </mxGeometry>
        </mxCell>
        <mxCell id="PUfzVRV3rjOm0Vk-YSZq-53" value="" style="edgeStyle=orthogonalEdgeStyle;rounded=0;orthogonalLoop=1;jettySize=auto;html=1;" edge="1" parent="1" source="PUfzVRV3rjOm0Vk-YSZq-15" target="PUfzVRV3rjOm0Vk-YSZq-17">
          <mxGeometry relative="1" as="geometry">
            <Array as="points">
              <mxPoint x="235" y="290" />
              <mxPoint x="235" y="290" />
            </Array>
          </mxGeometry>
        </mxCell>
        <mxCell id="PUfzVRV3rjOm0Vk-YSZq-66" value="1" style="edgeLabel;html=1;align=center;verticalAlign=middle;resizable=0;points=[];labelBackgroundColor=none;" vertex="1" connectable="0" parent="PUfzVRV3rjOm0Vk-YSZq-53">
          <mxGeometry x="-0.025" relative="1" as="geometry">
            <mxPoint x="5" y="-9" as="offset" />
          </mxGeometry>
        </mxCell>
        <mxCell id="PUfzVRV3rjOm0Vk-YSZq-54" value="&lt;font style=&quot;font-size: 12px;&quot;&gt;Ring Buffer&lt;/font&gt;" style="shape=cylinder3;whiteSpace=wrap;html=1;boundedLbl=1;backgroundOutline=1;size=15;" vertex="1" parent="1">
          <mxGeometry x="370" y="190" width="50" height="60" as="geometry" />
        </mxCell>
        <mxCell id="PUfzVRV3rjOm0Vk-YSZq-63" value="" style="edgeStyle=elbowEdgeStyle;elbow=horizontal;endArrow=classic;html=1;curved=0;rounded=0;endSize=8;startSize=8;exitX=0.25;exitY=0;exitDx=0;exitDy=0;entryX=1;entryY=0.5;entryDx=0;entryDy=0;entryPerimeter=0;" edge="1" parent="1" source="PUfzVRV3rjOm0Vk-YSZq-19" target="PUfzVRV3rjOm0Vk-YSZq-54">
          <mxGeometry width="50" height="50" relative="1" as="geometry">
            <mxPoint x="490" y="310" as="sourcePoint" />
            <mxPoint x="540" y="260" as="targetPoint" />
            <Array as="points">
              <mxPoint x="470" y="270" />
            </Array>
          </mxGeometry>
        </mxCell>
        <mxCell id="PUfzVRV3rjOm0Vk-YSZq-64" value="" style="edgeStyle=elbowEdgeStyle;elbow=horizontal;endArrow=classic;html=1;curved=0;rounded=0;endSize=8;startSize=8;entryX=0.25;entryY=0;entryDx=0;entryDy=0;exitX=0;exitY=0.5;exitDx=0;exitDy=0;exitPerimeter=0;" edge="1" parent="1" source="PUfzVRV3rjOm0Vk-YSZq-54" target="PUfzVRV3rjOm0Vk-YSZq-45">
          <mxGeometry width="50" height="50" relative="1" as="geometry">
            <mxPoint x="490" y="310" as="sourcePoint" />
            <mxPoint x="540" y="260" as="targetPoint" />
            <Array as="points">
              <mxPoint x="340" y="220" />
            </Array>
          </mxGeometry>
        </mxCell>
        <mxCell id="PUfzVRV3rjOm0Vk-YSZq-65" value="" style="edgeStyle=elbowEdgeStyle;elbow=horizontal;endArrow=classic;html=1;curved=0;rounded=0;endSize=8;startSize=8;entryX=0.294;entryY=-0.033;entryDx=0;entryDy=0;entryPerimeter=0;exitX=0.073;exitY=1;exitDx=0;exitDy=0;exitPerimeter=0;" edge="1" parent="1" source="PUfzVRV3rjOm0Vk-YSZq-15" target="PUfzVRV3rjOm0Vk-YSZq-21">
          <mxGeometry width="50" height="50" relative="1" as="geometry">
            <mxPoint x="410" y="250" as="sourcePoint" />
            <mxPoint x="460" y="200" as="targetPoint" />
          </mxGeometry>
        </mxCell>
        <mxCell id="PUfzVRV3rjOm0Vk-YSZq-67" value="2" style="edgeLabel;html=1;align=center;verticalAlign=middle;resizable=0;points=[];labelBackgroundColor=none;" vertex="1" connectable="0" parent="PUfzVRV3rjOm0Vk-YSZq-65">
          <mxGeometry x="-0.6651" y="1" relative="1" as="geometry">
            <mxPoint x="4" as="offset" />
          </mxGeometry>
        </mxCell>
        <mxCell id="PUfzVRV3rjOm0Vk-YSZq-68" value="" style="verticalLabelPosition=bottom;verticalAlign=top;html=1;shape=mxgraph.basic.flash" vertex="1" parent="1">
          <mxGeometry x="170" y="380" width="10" height="20" as="geometry" />
        </mxCell>
      </root>
    </mxGraphModel>
  </diagram>
</mxfile>
